<svg t="1649066870076" class="icon" viewBox="100 50 924 924" version="1.1" xmlns="http://www.w3.org/2000/svg" p-id="4614" width="64" height="64"><path d="M972.8 290.304c0-8.192-4.608-15.36-11.776-18.432l-440.32-207.36c-5.632-2.56-11.776-2.56-17.408 0l-440.32 207.36c-7.168 3.584-11.776 10.752-11.776 18.432s4.608 15.36 11.776 18.432l96.768 45.568v323.584c0 2.56 0 5.632 1.024 8.192 3.072 8.704 10.752 13.824 19.456 13.824 2.048 0 4.096-0.512 6.656-1.024l19.968-6.144c14.336 150.016 145.92 268.288 305.152 268.288 159.744 0 290.816-118.272 305.152-268.288l19.968 6.144c10.752 3.584 22.528-2.048 26.112-12.8 1.024-2.56 1.024-5.12 1.024-8.192V354.304l58.88-27.648v301.568c0 11.264 9.216 20.48 20.48 20.48s20.48-9.216 20.48-20.48V307.2c5.632-4.096 8.704-10.24 8.704-16.896z m-460.8 629.76c-140.8 0-256.512-105.472-264.704-238.592 81.408-20.48 171.52-31.232 265.216-31.232 93.696 0 183.808 10.752 264.704 31.232-8.704 133.12-124.416 238.592-265.216 238.592z m311.296-268.288c-5.632-1.536-11.776-3.584-17.408-5.12-1.536-0.512-3.072-1.024-4.608-1.024-88.064-23.552-186.88-35.84-288.768-35.84-102.4 0-200.704 12.288-288.768 35.84-1.536 0-3.584 0.512-5.12 1.536-5.632 1.536-11.776 3.072-17.408 5.12V373.76l302.592 142.336c2.56 1.536 5.632 2.048 8.704 2.048s6.144-0.512 8.704-2.048l302.08-142.336v278.016zM512 475.136l-392.192-184.32 392.192-184.32 392.192 184.32-392.192 184.32z" p-id="4615"></path></svg>